<svg xmlns="http://www.w3.org/2000/svg" width="819.609" height="483.658"><style>.st0{fill:#333}.st2{fill:#fff}</style><g id="Layer_2"><path class="st0" d="M409.805 402.597c-26.115 0-39.778-6.06-39.778-12.046 0-7.824 20.495-12.046 39.778-12.046s39.778 4.222 39.778 12.046c0 5.986-13.663 12.046-39.778 12.046zm0-21.092c-22.786 0-36.778 5.269-36.778 9.046s13.992 9.046 36.778 9.046 36.778-5.269 36.778-9.046-13.992-9.046-36.778-9.046zM409.805 421.866c-19.283 0-39.778-4.222-39.778-12.046h3c0 3.777 13.992 9.046 36.778 9.046s36.778-5.269 36.778-9.046h3c0 7.824-20.495 12.046-39.778 12.046zM409.805 441.136c-19.283 0-39.778-4.222-39.778-12.046h3c0 3.777 13.992 9.046 36.778 9.046s36.778-5.269 36.778-9.046h3c0 7.824-20.495 12.046-39.778 12.046zM409.805 460.405c-19.283 0-39.778-4.222-39.778-12.046h3c0 3.777 13.992 9.046 36.778 9.046s36.778-5.269 36.778-9.046h3c0 7.824-20.495 12.046-39.778 12.046z"/><path class="st0" d="M370.059 390.746h3V449.4h-3zM446.518 390.746h3V449.4h-3zM354.114 467.885h4.923c4.149 0 7.016 2.848 7.016 6.562v.038c0 3.715-2.866 6.601-7.016 6.601h-4.923v-13.201zm2.321 2.112v8.977h2.603c2.772 0 4.583-1.867 4.583-4.45v-.038c0-2.584-1.811-4.488-4.583-4.488h-2.603zM373.782 467.79h2.15l5.809 13.296h-2.451l-1.34-3.188h-6.242l-1.357 3.188h-2.377l5.808-13.296zm3.32 8.053l-2.281-5.28-2.264 5.28h4.545zM386.718 470.034h-4.188v-2.149h10.713v2.149h-4.188v11.052h-2.338v-11.052zM399.841 467.79h2.15l5.809 13.296h-2.451l-1.34-3.188h-6.242l-1.357 3.188h-2.377l5.808-13.296zm3.319 8.053l-2.281-5.28-2.264 5.28h4.545zM411.229 467.885h5.923c1.509 0 2.696.414 3.451 1.169.584.585.886 1.301.886 2.188v.038c0 1.584-.905 2.433-1.886 2.942 1.547.527 2.622 1.414 2.622 3.206v.037c0 2.357-1.943 3.621-4.885 3.621h-6.111v-13.201zm7.94 3.733c0-1.037-.83-1.678-2.319-1.678h-3.339v3.508h3.169c1.489 0 2.489-.585 2.489-1.792v-.038zm-1.981 3.791h-3.678v3.621h3.848c1.584 0 2.546-.622 2.546-1.811v-.037c0-1.113-.886-1.773-2.716-1.773zM430.688 467.79h2.15l5.809 13.296h-2.451l-1.34-3.188h-6.242l-1.357 3.188h-2.377l5.808-13.296zm3.32 8.053l-2.281-5.28-2.264 5.28h4.545zM440.965 479.162l1.396-1.659c1.264 1.094 2.546 1.716 4.168 1.716 1.434 0 2.339-.679 2.339-1.659v-.038c0-.942-.528-1.452-2.98-2.018-2.81-.679-4.395-1.509-4.395-3.942v-.037c0-2.264 1.887-3.829 4.508-3.829 1.924 0 3.451.585 4.791 1.66l-1.245 1.754c-1.188-.887-2.376-1.358-3.583-1.358-1.358 0-2.15.698-2.15 1.565v.038c0 1.019.604 1.471 3.149 2.074 2.791.68 4.225 1.679 4.225 3.866v.038c0 2.471-1.942 3.941-4.715 3.941-2.019 0-3.924-.697-5.508-2.112zM455.088 467.885h9.788v2.074h-7.469v3.433h6.62v2.074h-6.62v3.546h7.563v2.074h-9.883v-13.201z"/><g><path class="st0" d="M73.838 43.901h2.565l3.979 10.146 3.96-10.146h2.508l-5.469 13.296h-2.056l-5.487-13.296zM90.413 43.901h2.32v13.201h-2.32V43.901zM97.427 43.901h9.789v2.074h-7.469v3.433h6.62v2.074h-6.62v3.546h7.563v2.074h-9.883V43.901zM110.211 43.901h2.508l3.149 9.788 3.244-9.826h1.962l3.244 9.826 3.149-9.788h2.433l-4.583 13.296H123.3l-3.244-9.486-3.244 9.486h-1.999l-4.602-13.296zM139.645 50.54v-.038c0-3.772 2.301-6.827 5.771-6.827 3.451 0 5.733 3.018 5.733 6.789v.038c0 3.771-2.301 6.827-5.771 6.827s-5.733-3.018-5.733-6.789zm9.109 0v-.038c0-2.603-1.339-4.734-3.376-4.734s-3.338 2.075-3.338 4.696v.038c0 2.603 1.32 4.733 3.376 4.733s3.338-2.112 3.338-4.695zM156.653 46.164l-2.376.66-.49-1.886 3.564-1.132h1.604v13.296h-2.301V46.164zM265.921 43.901h2.565l3.979 10.146 3.96-10.146h2.508l-5.469 13.296h-2.056l-5.487-13.296zM282.496 43.901h2.319v13.201h-2.319V43.901zM289.51 43.901h9.789v2.074h-7.469v3.433h6.62v2.074h-6.62v3.546h7.563v2.074h-9.883V43.901zM302.294 43.901h2.509l3.149 9.788 3.244-9.826h1.961l3.244 9.826 3.149-9.788h2.434l-4.583 13.296h-2.019l-3.243-9.486-3.244 9.486h-1.999l-4.602-13.296zM331.729 50.54v-.038c0-3.772 2.301-6.827 5.771-6.827 3.451 0 5.733 3.018 5.733 6.789v.038c0 3.771-2.301 6.827-5.771 6.827-3.471 0-5.733-3.018-5.733-6.789zm9.108 0v-.038c0-2.603-1.339-4.734-3.375-4.734-2.037 0-3.339 2.075-3.339 4.696v.038c0 2.603 1.32 4.733 3.376 4.733s3.338-2.112 3.338-4.695zM346.21 55.273l4.545-3.866c1.811-1.547 2.471-2.376 2.471-3.564 0-1.302-.925-2.056-2.132-2.056s-2.036.66-3.036 1.98l-1.659-1.302c1.264-1.754 2.508-2.754 4.865-2.754 2.584 0 4.356 1.585 4.356 3.942v.037c0 2.075-1.094 3.206-3.432 5.111l-2.716 2.264h6.28v2.036h-9.543v-1.828z"/><g><path class="st0" d="M460.72 43.901h2.564l3.979 10.146 3.961-10.146h2.508l-5.469 13.296h-2.056l-5.487-13.296zM477.294 43.901h2.32v13.201h-2.32V43.901zM484.308 43.901h9.789v2.074h-7.469v3.433h6.62v2.074h-6.62v3.546h7.562v2.074h-9.883V43.901zM497.093 43.901h2.508l3.149 9.788 3.244-9.826h1.962l3.243 9.826 3.149-9.788h2.434l-4.583 13.296h-2.019l-3.243-9.486-3.244 9.486h-1.999l-4.601-13.296zM526.526 50.54v-.038c0-3.772 2.301-6.827 5.771-6.827 3.451 0 5.733 3.018 5.733 6.789v.038c0 3.771-2.301 6.827-5.771 6.827-3.47 0-5.733-3.018-5.733-6.789zm9.11 0v-.038c0-2.603-1.34-4.734-3.376-4.734-2.037 0-3.339 2.075-3.339 4.696v.038c0 2.603 1.32 4.733 3.376 4.733s3.339-2.112 3.339-4.695zM540.895 55.01l1.622-1.509c.942 1.112 1.999 1.734 3.47 1.734 1.302 0 2.282-.792 2.282-1.999v-.037c0-1.302-1.188-2.037-3.036-2.037h-1.075l-.377-1.452 3.564-3.791h-5.715v-2.018h8.732v1.734l-3.678 3.772c1.999.245 3.885 1.264 3.885 3.696v.038c0 2.433-1.867 4.187-4.621 4.187-2.301.001-3.941-.961-5.053-2.318z"/></g><g><path class="st0" d="M654.104 43.901h2.565l3.979 10.146 3.96-10.146h2.509l-5.47 13.296h-2.056l-5.487-13.296zM670.679 43.901h2.319v13.201h-2.319V43.901zM677.692 43.901h9.788v2.074h-7.469v3.433h6.62v2.074h-6.62v3.546h7.563v2.074h-9.883V43.901zM690.477 43.901h2.509l3.149 9.788 3.243-9.826h1.962l3.244 9.826 3.149-9.788h2.433l-4.583 13.296h-2.018l-3.244-9.486-3.244 9.486h-1.999l-4.601-13.296zM719.91 50.54v-.038c0-3.772 2.301-6.827 5.771-6.827 3.451 0 5.733 3.018 5.733 6.789v.038c0 3.771-2.301 6.827-5.771 6.827-3.469 0-5.733-3.018-5.733-6.789zm9.11 0v-.038c0-2.603-1.339-4.734-3.376-4.734s-3.338 2.075-3.338 4.696v.038c0 2.603 1.32 4.733 3.376 4.733s3.338-2.112 3.338-4.695zM741.426 54.141h-6.657l-.434-1.659 7.337-8.676h1.979v8.431h1.887v1.904h-1.887v2.961h-2.226v-2.961zm0-1.904v-5.225l-4.337 5.225h4.337z"/></g><g><linearGradient id="SVGID_1_" gradientUnits="userSpaceOnUse" x1="48.588" y1="45.997" x2="185.449" y2="45.997"><stop offset="0" stop-color="#17c9c0"/><stop offset=".168" stop-color="#00a9d7"/><stop offset=".564" stop-color="#1cd0bb"/><stop offset="1" stop-color="#0fbec8"/></linearGradient><path fill="url(#SVGID_1_)" d="M51.948 90.137h-3.36V2.451h15.995l104.271-.593h16.595V89.51h-3.361V5.219h-13.224l-104.272.592H51.948z"/><path class="st2" d="M207.718 90.136l-3.545 10.823c-.526 1.605-3.927 2.893-7.601 2.893H37.465c-3.675 0-7.075-1.287-7.601-2.893l-3.545-10.823h181.399z"/><linearGradient id="SVGID_2_" gradientUnits="userSpaceOnUse" x1="24" y1="96.994" x2="210.037" y2="96.994"><stop offset="0" stop-color="#17c9c0"/><stop offset=".168" stop-color="#00a9d7"/><stop offset=".564" stop-color="#1cd0bb"/><stop offset="1" stop-color="#0fbec8"/></linearGradient><path d="M196.572 105.532H37.465c-3.792 0-8.287-1.268-9.199-4.05L24 88.456h186.037l-4.268 13.026c-.911 2.783-5.406 4.05-9.197 4.05zM28.638 91.817l2.823 8.618c.231.513 2.557 1.735 6.005 1.735h159.106c3.448 0 5.773-1.223 6.007-1.744l2.82-8.609H28.638z" fill="url(#SVGID_2_)"/></g><g><linearGradient id="SVGID_3_" gradientUnits="userSpaceOnUse" x1="242.779" y1="45.997" x2="379.641" y2="45.997"><stop offset="0" stop-color="#17c9c0"/><stop offset=".168" stop-color="#00a9d7"/><stop offset=".564" stop-color="#1cd0bb"/><stop offset="1" stop-color="#0fbec8"/></linearGradient><path fill="url(#SVGID_3_)" d="M246.139 90.137h-3.36V2.451h15.994l104.272-.593h16.596V89.51h-3.362V5.219h-13.224l-104.272.592h-12.644z"/><path class="st2" d="M401.909 90.136l-3.545 10.823c-.526 1.605-3.927 2.893-7.601 2.893H231.656c-3.675 0-7.075-1.287-7.601-2.893l-3.545-10.823h181.399z"/><linearGradient id="SVGID_4_" gradientUnits="userSpaceOnUse" x1="218.191" y1="96.994" x2="404.228" y2="96.994"><stop offset="0" stop-color="#17c9c0"/><stop offset=".168" stop-color="#00a9d7"/><stop offset=".564" stop-color="#1cd0bb"/><stop offset="1" stop-color="#0fbec8"/></linearGradient><path d="M390.763 105.532H231.656c-3.792 0-8.287-1.268-9.198-4.05l-4.267-13.026h186.037l-4.267 13.026c-.912 2.783-5.407 4.05-9.198 4.05zM222.829 91.817l2.823 8.618c.23.513 2.557 1.735 6.004 1.735h159.106c3.448 0 5.774-1.223 6.008-1.744l2.82-8.609H222.829z" fill="url(#SVGID_4_)"/></g><g><linearGradient id="SVGID_5_" gradientUnits="userSpaceOnUse" x1="439.97" y1="45.997" x2="576.831" y2="45.997"><stop offset="0" stop-color="#17c9c0"/><stop offset=".168" stop-color="#00a9d7"/><stop offset=".564" stop-color="#1cd0bb"/><stop offset="1" stop-color="#0fbec8"/></linearGradient><path fill="url(#SVGID_5_)" d="M443.331 90.137h-3.361V2.451h15.994l104.271-.593h16.596V89.51h-3.361V5.219h-13.225l-104.271.592h-12.643z"/><path class="st2" d="M599.1 90.136l-3.545 10.823c-.526 1.605-3.927 2.893-7.601 2.893H428.847c-3.675 0-7.075-1.287-7.601-2.893l-3.545-10.823H599.1z"/><linearGradient id="SVGID_6_" gradientUnits="userSpaceOnUse" x1="415.381" y1="96.994" x2="601.418" y2="96.994"><stop offset="0" stop-color="#17c9c0"/><stop offset=".168" stop-color="#00a9d7"/><stop offset=".564" stop-color="#1cd0bb"/><stop offset="1" stop-color="#0fbec8"/></linearGradient><path d="M587.953 105.532H428.847c-3.791 0-8.287-1.268-9.197-4.051l-4.269-13.025h186.037l-4.267 13.026c-.91 2.783-5.406 4.05-9.198 4.05zM420.02 91.817l2.823 8.618c.231.514 2.557 1.735 6.004 1.735h159.106c3.447 0 5.773-1.222 6.008-1.743l2.82-8.61H420.02z" fill="url(#SVGID_6_)"/></g><g><linearGradient id="SVGID_7_" gradientUnits="userSpaceOnUse" x1="634.16" y1="45.997" x2="771.021" y2="45.997"><stop offset="0" stop-color="#17c9c0"/><stop offset=".168" stop-color="#00a9d7"/><stop offset=".564" stop-color="#1cd0bb"/><stop offset="1" stop-color="#0fbec8"/></linearGradient><path fill="url(#SVGID_7_)" d="M637.521 90.137h-3.361V2.451h15.995l104.272-.593h16.594V89.51h-3.361V5.219h-13.223l-104.272.592h-12.644z"/><path class="st2" d="M793.291 90.136l-3.545 10.823c-.526 1.605-3.927 2.893-7.601 2.893H623.038c-3.675 0-7.075-1.287-7.601-2.893l-3.545-10.823h181.399z"/><linearGradient id="SVGID_8_" gradientUnits="userSpaceOnUse" x1="609.573" y1="96.994" x2="795.609" y2="96.994"><stop offset="0" stop-color="#17c9c0"/><stop offset=".168" stop-color="#00a9d7"/><stop offset=".564" stop-color="#1cd0bb"/><stop offset="1" stop-color="#0fbec8"/></linearGradient><path d="M782.145 105.532H623.038c-3.791 0-8.286-1.268-9.198-4.05l-4.267-13.026h186.036l-4.267 13.026c-.911 2.783-5.406 4.05-9.197 4.05zM614.21 91.817l2.823 8.618c.23.513 2.557 1.735 6.005 1.735h159.106c3.448 0 5.774-1.223 6.008-1.744l2.82-8.609H614.21z" fill="url(#SVGID_8_)"/></g></g><g><path class="st0" d="M406.819 343.44h5.971v32.878h-5.971z"/><path class="st0" d="M400.874 346.054l8.931-15.466 8.93 15.466z"/></g><g><path transform="rotate(-180 409.805 200.832)" class="st2" d="M253.172 175.405h313.265v50.855H253.172z"/><linearGradient id="SVGID_9_" gradientUnits="userSpaceOnUse" x1="251.55" y1="436.679" x2="569.849" y2="436.679" gradientTransform="rotate(180 410.252 318.756)"><stop offset="0" stop-color="#17c9c0"/><stop offset=".168" stop-color="#00a9d7"/><stop offset=".564" stop-color="#1cd0bb"/><stop offset="1" stop-color="#0fbec8"/></linearGradient><path d="M568.954 228.776H250.655v-55.888h318.299v55.888zm-313.265-5.033h308.232v-45.821H255.689v45.821z" fill="url(#SVGID_9_)"/></g><g><path class="st0" d="M325.604 195.07h2.32v11.089h6.94v2.112h-9.261V195.07zM337.106 201.709v-.038c0-3.716 2.867-6.827 6.922-6.827s6.884 3.074 6.884 6.789v.038c0 3.715-2.867 6.827-6.922 6.827s-6.884-3.074-6.884-6.789zm11.373 0v-.038c0-2.565-1.867-4.696-4.489-4.696-2.621 0-4.451 2.094-4.451 4.658v.038c0 2.564 1.867 4.677 4.489 4.677 2.621 0 4.451-2.075 4.451-4.639zM354.304 201.709v-.038c0-3.696 2.829-6.827 6.808-6.827 2.302 0 3.716.641 5.074 1.791l-1.472 1.755c-1.019-.868-2.018-1.415-3.696-1.415-2.433 0-4.281 2.131-4.281 4.658v.038c0 2.716 1.792 4.715 4.488 4.715 1.245 0 2.377-.396 3.188-1v-2.47h-3.376v-2.019h5.62v5.545c-1.301 1.112-3.168 2.056-5.507 2.056-4.13 0-6.846-2.942-6.846-6.789zM370.972 195.07h2.319v13.201h-2.319V195.07zM377.401 201.709v-.038c0-3.753 2.811-6.827 6.809-6.827 2.433 0 3.904.849 5.168 2.056l-1.49 1.716c-1.057-.98-2.188-1.641-3.696-1.641-2.509 0-4.357 2.074-4.357 4.658v.038c0 2.584 1.83 4.677 4.357 4.677 1.622 0 2.659-.641 3.79-1.697l1.49 1.509c-1.377 1.434-2.886 2.339-5.356 2.339-3.847-.001-6.715-3-6.715-6.79zM397.748 194.975h2.149l5.81 13.296h-2.452l-1.339-3.188h-6.243l-1.357 3.188h-2.376l5.808-13.296zm3.319 8.053l-2.282-5.28-2.263 5.28h4.545zM409.136 195.07h2.319v11.089h6.94v2.112h-9.26V195.07zM428.802 195.07h2.32v11.089h6.94v2.112h-9.261V195.07zM441.643 195.07h9.788v2.074h-7.469v3.433h6.62v2.074h-6.62v3.546h7.563v2.074h-9.883V195.07zM454.313 195.07h2.565l3.979 10.146 3.96-10.146h2.509l-5.47 13.296H459.8l-5.487-13.296zM470.756 195.07h9.789v2.074h-7.469v3.433h6.619v2.074h-6.619v3.546h7.562v2.074h-9.883V195.07zM484.559 195.07h2.319v11.089h6.94v2.112h-9.26V195.07z"/></g><g><path class="st0" d="M406.819 243.558h5.971v32.878h-5.971z"/><path class="st0" d="M400.874 246.172l8.931-15.466 8.93 15.466z"/></g><g><path class="st2" d="M253.172 277.734h313.265v50.855H253.172z"/><linearGradient id="SVGID_10_" gradientUnits="userSpaceOnUse" x1="250.655" y1="303.161" x2="568.954" y2="303.161"><stop offset="0" stop-color="#17c9c0"/><stop offset=".168" stop-color="#00a9d7"/><stop offset=".564" stop-color="#1cd0bb"/><stop offset="1" stop-color="#0fbec8"/></linearGradient><path d="M568.954 331.104H250.655v-55.888h318.299v55.888zm-313.265-5.033h308.232V280.25H255.689v45.821z" fill="url(#SVGID_10_)"/></g><g><path class="st0" d="M319.967 297.401h5.205c3.093 0 5.017 1.754 5.017 4.413v.037c0 2.961-2.376 4.508-5.28 4.508h-2.622v4.243h-2.319v-13.201zm5.016 6.865c1.754 0 2.848-.98 2.848-2.357v-.037c0-1.547-1.112-2.357-2.848-2.357h-2.697v4.752h2.697zM333.731 297.401h2.319v5.487h6.3v-5.487h2.319v13.201h-2.319v-5.563h-6.3v5.563h-2.319v-13.201zM353.116 305.397l-5.243-7.996h2.753l3.678 5.827 3.734-5.827h2.659l-5.243 7.939v5.262h-2.338v-5.205zM362.354 308.679l1.396-1.659c1.264 1.094 2.546 1.716 4.168 1.716 1.434 0 2.339-.679 2.339-1.659v-.038c0-.942-.528-1.452-2.979-2.018-2.811-.679-4.395-1.509-4.395-3.942v-.037c0-2.264 1.886-3.829 4.508-3.829 1.923 0 3.451.585 4.79 1.66l-1.245 1.754c-1.188-.887-2.376-1.358-3.583-1.358-1.358 0-2.15.698-2.15 1.565v.038c0 1.019.604 1.471 3.15 2.074 2.791.68 4.225 1.679 4.225 3.866v.038c0 2.471-1.943 3.941-4.716 3.941-2.018 0-3.924-.697-5.508-2.112zM376.61 297.401h2.319v13.201h-2.319v-13.201zM383.039 304.04v-.038c0-3.753 2.811-6.827 6.809-6.827 2.433 0 3.904.849 5.168 2.056l-1.49 1.716c-1.057-.98-2.188-1.641-3.696-1.641-2.509 0-4.357 2.074-4.357 4.658v.038c0 2.584 1.83 4.677 4.357 4.677 1.622 0 2.659-.641 3.79-1.697l1.49 1.509c-1.377 1.434-2.886 2.339-5.356 2.339-3.848-.001-6.715-3-6.715-6.79zM403.386 297.307h2.149l5.81 13.296h-2.452l-1.339-3.188h-6.243l-1.357 3.188h-2.376l5.808-13.296zm3.319 8.052l-2.282-5.28-2.263 5.28h4.545zM414.773 297.401h2.319v11.089h6.94v2.112h-9.26v-13.201zM434.439 297.401h2.32v11.089h6.94v2.112h-9.261v-13.201zM447.28 297.401h9.789v2.074H449.6v3.433h6.619v2.074H449.6v3.546h7.562v2.074h-9.883v-13.201zM459.951 297.401h2.565l3.979 10.146 3.96-10.146h2.509l-5.47 13.296h-2.056l-5.487-13.296zM476.394 297.401h9.789v2.074h-7.469v3.433h6.619v2.074h-6.619v3.546h7.562v2.074h-9.883v-13.201zM490.196 297.401h2.32v11.089h6.94v2.112h-9.261v-13.201z"/></g><g><path class="st0" d="M388.199 172.405h-5.971v-12.777a2.257 2.257 0 0 0-2.255-2.254H144.027c-11.979 0-21.724-9.746-21.724-21.725v-7.945h5.97v7.945c0 8.687 7.067 15.754 15.754 15.754h235.947c4.535 0 8.226 3.689 8.226 8.225v12.777z"/><path class="st0" d="M116.357 130.317l8.931-15.465 8.93 15.465zM406.048 172.405h-5.971v-17.448c0-8.687-7.067-15.754-15.754-15.754h-56.251c-7.539 0-14.43-3.821-18.432-10.221l5.062-3.166c2.903 4.645 7.901 7.416 13.369 7.416h56.251c11.979 0 21.725 9.746 21.725 21.725v17.448z"/><path class="st0" d="M304.968 132.169l4.365-17.317 12.816 12.437z"/><g><path class="st0" d="M437.382 172.405h-5.971v-12.777c0-4.535 3.689-8.225 8.225-8.225h235.947c8.687 0 15.754-7.067 15.754-15.754v-7.945h5.971v7.945c0 11.979-9.746 21.725-21.725 21.725H439.636a2.256 2.256 0 0 0-2.254 2.254v12.777z"/><path class="st0" d="M685.391 130.317l8.931-15.465 8.93 15.465z"/></g><g><path class="st0" d="M419.532 172.405h-5.971v-17.448c0-11.979 9.746-21.725 21.725-21.725h56.251c5.468 0 10.466-2.771 13.369-7.416l5.062 3.166c-4.002 6.399-10.893 10.221-18.432 10.221h-56.251c-8.687 0-15.754 7.067-15.754 15.754v17.448z"/><path class="st0" d="M497.46 127.289l12.816-12.437 4.366 17.317z"/></g></g></g></svg>